<?xml version="1.0" standalone="no"?>
<!DOCTYPE svg PUBLIC "-//W3C//DTD SVG 20010904//EN"
 "http://www.w3.org/TR/2001/REC-SVG-20010904/DTD/svg10.dtd">
<svg version="1.0" xmlns="http://www.w3.org/2000/svg"
 width="16.000000pt" height="16.000000pt" viewBox="0 0 16.000000 16.000000"
 preserveAspectRatio="xMidYMid meet">
<metadata>
Created by potrace 1.11, written by Peter Selinger 2001-2013
</metadata>
<g transform="translate(0.000000,16.000000) scale(0.006154,-0.006154)"
fill="#000000" stroke="none">
<path d="M688 2596 c0 -1 -2 -148 -3 -327 -1 -179 -5 -331 -9 -337 -5 -9 -96
-12 -342 -12 l-334 0 2 -607 3 -608 333 -1 c182 0 335 -4 339 -7 3 -4 6 -161
7 -349 l1 -343 611 -2 c575 -3 612 -2 616 15 2 9 4 167 3 350 l0 332 40 1 c22
0 175 1 340 2 l300 2 3 607 2 608 -342 2 -343 3 -1 330 c-1 182 -2 333 -3 336
-1 4 -1211 8 -1223 5z m807 -246 c139 -29 239 -140 237 -264 -1 -95 -12 -136
-52 -211 -33 -61 -39 -85 -31 -127 2 -15 47 -50 81 -65 28 -12 66 -14 195 -9
88 2 174 7 190 10 17 4 72 8 124 10 84 3 99 1 128 -18 18 -11 33 -27 33 -33 0
-21 2 -27 10 -43 4 -8 11 -47 14 -86 4 -39 9 -82 12 -95 4 -13 7 -58 8 -99 2
-41 6 -116 10 -166 10 -115 -6 -164 -52 -164 -17 0 -32 6 -36 15 -3 8 -6 67
-6 132 -2 253 -12 389 -30 423 -6 11 -26 22 -46 26 -47 9 -443 8 -472 -1 -28
-9 -36 -39 -24 -90 12 -56 6 -260 -11 -325 -15 -61 -101 -198 -149 -239 -22
-17 -28 -30 -24 -46 3 -12 8 -59 11 -105 4 -46 17 -118 31 -161 13 -42 27 -96
29 -120 8 -66 10 -73 19 -87 16 -26 13 -133 -4 -154 -15 -19 -16 -19 -43 8
-15 14 -27 38 -28 53 0 14 -2 33 -4 41 -1 8 -8 53 -14 100 -13 101 -14 108
-35 186 -9 34 -16 77 -16 96 0 19 -6 43 -14 54 -14 17 -16 18 -31 3 -9 -9 -17
-34 -18 -55 -2 -72 13 -249 27 -308 20 -85 13 -153 -18 -185 -38 -37 -54 -16
-62 84 -3 44 -12 105 -19 135 -7 30 -13 62 -13 70 1 34 -12 157 -20 190 -8 35
-35 51 -54 32 -13 -13 -9 -242 7 -392 5 -41 9 -97 9 -125 l1 -50 -36 -3 c-23
-2 -40 2 -48 12 -12 14 -18 138 -22 421 -2 91 -11 135 -28 135 -9 0 -26 -60
-36 -129 -3 -19 -7 -37 -10 -41 -6 -9 -7 -278 -1 -313 4 -27 -14 -57 -35 -57
-23 0 -60 33 -53 49 4 9 8 89 9 177 2 89 5 170 8 180 3 11 9 52 12 92 6 61 4
73 -10 78 -19 8 -54 -21 -53 -44 1 -10 -6 -42 -15 -72 -9 -30 -19 -109 -23
-175 -4 -75 -14 -140 -26 -175 -10 -30 -18 -57 -17 -60 5 -11 -33 -11 -46 0
-27 22 -6 267 32 385 10 29 18 96 20 161 3 101 1 113 -18 135 -40 45 -57 92
-100 264 -6 22 -10 78 -11 125 0 67 5 97 24 145 13 33 24 67 23 75 0 29 -94
33 -440 15 -60 -3 -138 -27 -164 -51 -25 -23 -33 -213 -18 -432 5 -61 5 -112
0 -113 -4 0 -16 -2 -25 -4 -24 -5 -47 26 -62 81 -12 50 -13 230 -2 434 3 58 6
115 6 126 0 36 31 63 80 69 69 8 218 9 285 2 33 -4 110 -12 170 -18 61 -6 137
-14 171 -18 96 -10 136 2 162 48 12 21 22 45 22 53 0 30 -51 114 -82 135 -27
18 -122 49 -173 57 -15 2 -24 18 -18 33 4 11 29 14 117 12 148 -3 171 -12 221
-84 42 -61 76 -92 110 -100 11 -2 35 -8 53 -14 68 -21 159 7 218 66 81 81 110
218 66 315 -46 103 -200 148 -350 101 -39 -12 -67 -30 -106 -70 l-54 -54 -123
12 c-68 6 -132 16 -141 21 -24 12 -23 55 2 68 11 6 39 13 63 15 70 6 108 15
197 46 134 47 196 59 290 54 47 -3 107 -9 135 -15z m-41 -140 c47 -32 76 -95
76 -163 0 -63 -25 -108 -80 -145 -50 -33 -148 -30 -216 8 -74 42 -89 68 -89
155 0 64 3 77 25 101 14 14 48 38 75 51 67 32 155 29 209 -7z m-419 -104 c11
-2 25 -5 32 -5 15 -1 25 -33 17 -55 -6 -14 -19 -17 -77 -15 -39 1 -97 8 -129
14 -31 7 -59 11 -61 8 -2 -2 -9 3 -16 10 -14 18 -5 45 17 49 22 5 191 0 217
-6z m1041 -564 c7 -4 9 -34 5 -87 -3 -44 -1 -131 6 -194 14 -132 16 -268 4
-275 -4 -3 -23 -1 -42 4 l-35 10 0 177 c0 98 -3 219 -7 270 l-8 92 28 4 c15 2
30 5 33 5 3 1 10 -2 16 -6z m143 -11 c8 -6 14 -35 17 -87 11 -249 21 -364 35
-418 12 -46 4 -57 -41 -59 l-31 -2 -5 90 c-6 128 -13 255 -20 369 -4 76 -2
101 8 107 16 11 20 11 37 0z m-1621 -13 c15 -19 31 -446 18 -503 -2 -11 -5
-23 -5 -27 -1 -12 -29 -10 -36 2 -27 44 -39 496 -14 526 14 17 24 18 37 2z
m1328 -61 c0 -29 4 -138 9 -243 l8 -191 -24 -16 c-22 -16 -24 -16 -31 3 -7 20
-17 146 -23 320 -3 58 -5 116 -6 130 -3 47 1 59 24 62 33 6 42 -8 43 -65z
m-1491 41 c2 -7 7 -114 11 -238 3 -124 7 -243 8 -265 1 -37 -1 -40 -23 -37
-13 1 -30 10 -37 20 -23 31 -39 154 -38 297 0 150 13 221 42 228 29 8 33 7 37
-5z m319 -10 c3 -13 5 -30 5 -38 0 -8 2 -49 5 -90 10 -152 8 -327 -3 -349 -13
-23 -36 -28 -43 -8 -3 6 -6 123 -7 260 -2 243 -2 247 18 247 13 0 22 -8 25
-22z"/>
<path d="M1225 1700 c-76 -16 -150 -50 -191 -88 -42 -38 -94 -109 -98 -134 -1
-7 -5 -19 -10 -27 -5 -7 -10 -59 -12 -115 -3 -106 15 -187 64 -282 26 -50 87
-108 135 -128 123 -50 307 -29 435 51 67 42 93 74 130 165 22 54 26 79 26 168
1 86 -3 116 -22 165 -31 83 -104 156 -202 202 -60 29 -180 40 -255 23z m186
-86 c47 -13 140 -67 176 -100 7 -7 22 -31 35 -55 20 -38 23 -59 23 -144 -1
-89 -4 -106 -27 -150 -31 -58 -73 -106 -107 -124 -79 -42 -238 -58 -327 -33
-90 26 -185 111 -205 184 -42 151 16 339 123 394 78 40 221 54 309 28z"/>
<path d="M1242 1559 c-12 -5 -32 -10 -44 -12 -69 -10 -129 -70 -153 -152 -22
-73 -25 -110 -12 -154 12 -46 83 -138 121 -158 32 -17 199 -29 219 -16 7 4 17
8 22 9 36 7 103 38 123 57 62 58 79 161 46 278 -27 98 -110 151 -240 154 -33
1 -70 -2 -82 -6z m183 -74 c59 -28 82 -56 92 -112 24 -138 -17 -219 -128 -249
-50 -14 -113 -18 -149 -11 -60 12 -130 94 -137 161 -6 50 18 141 46 174 54 63
183 81 276 37z"/>
<path d="M1244 1431 c-118 -74 -124 -202 -13 -258 77 -40 172 -25 217 32 28
36 30 115 4 165 -34 63 -149 97 -208 61z m122 -44 c49 -26 61 -63 38 -124 -12
-34 -22 -45 -47 -51 -47 -12 -73 -4 -106 33 -47 54 -32 123 33 150 35 15 41
14 82 -8z"/>
<path d="M1305 1314 c-12 -12 -13 -19 -4 -30 15 -18 33 -18 49 1 10 12 10 18
0 30 -16 19 -25 19 -45 -1z"/>
<path d="M1284 2183 c-48 -16 -81 -52 -90 -98 -9 -51 2 -81 41 -111 31 -23 45
-27 107 -27 68 0 73 2 100 32 15 17 29 41 30 54 0 12 2 29 3 37 3 29 -35 90
-67 106 -41 21 -77 23 -124 7z m118 -65 c21 -20 26 -31 22 -54 -11 -63 -78
-94 -137 -63 -30 16 -37 28 -37 67 0 73 93 104 152 50z"/>
<path d="M1316 2085 c-15 -16 -12 -44 7 -57 18 -11 57 14 57 38 0 33 -38 45
-64 19z"/>
</g>
</svg>
